inDegrees=no
num_controls=7
num_derivatives=13
num_iterations=64
num_multipliers=7
num_parameters=0
num_slacks=7
num_states=26
objective=0.426011
objective_accelerations=0.060482
objective_balance=0.001379
objective_effort=0.015154
objective_height=0.343094
objective_ligament=0.005902
solver_duration=948.789706
status=Solve_Succeeded
success=true
DataType=double
version=3
OpenSimVersion=4.5
endheader
time	/jointset/ground_pelvis/pelvis_tilt/value	/jointset/ground_pelvis/pelvis_tx/value	/jointset/ground_pelvis/pelvis_ty/value	/jointset/hip_l/hip_flexion_l/value	/jointset/hip_l/hip_adduction_l/value	/jointset/hip_l/hip_rotation_l/value	/jointset/back/lumbar_extension/value	/jointset/patellofemoral_l/patellar_flexion_l/value	/jointset/knee_l/knee_flexion_l/value	/jointset/knee_l/knee_adduction_l/value	/jointset/knee_l/knee_rotation_l/value	/jointset/ankle_l/ankle_angle_l/value	/jointset/subtalar_l/subtalar_angle_l/value	/jointset/ground_pelvis/pelvis_tilt/speed	/jointset/ground_pelvis/pelvis_tx/speed	/jointset/ground_pelvis/pelvis_ty/speed	/jointset/hip_l/hip_flexion_l/speed	/jointset/hip_l/hip_adduction_l/speed	/jointset/hip_l/hip_rotation_l/speed	/jointset/back/lumbar_extension/speed	/jointset/patellofemoral_l/patellar_flexion_l/speed	/jointset/knee_l/knee_flexion_l/speed	/jointset/knee_l/knee_adduction_l/speed	/jointset/knee_l/knee_rotation_l/speed	/jointset/ankle_l/ankle_angle_l/speed	/jointset/subtalar_l/subtalar_angle_l/speed	/forceset/tau_hip_flexion_l	/forceset/tau_hip_adduction_l	/forceset/tau_hip_rotation_l	/forceset/tau_knee_flexion_l	/forceset/tau_ankle_angle_l	/forceset/tau_subtalar_angle_l	/forceset/tau_lumbar_extension	lambda_cid13_p0	lambda_cid13_p1	lambda_cid13_p2	lambda_cid13_p3	lambda_cid13_p4	lambda_cid13_p5	lambda_cid14_p0	/jointset/ground_pelvis/pelvis_tilt/accel	/jointset/ground_pelvis/pelvis_tx/accel	/jointset/ground_pelvis/pelvis_ty/accel	/jointset/hip_l/hip_flexion_l/accel	/jointset/hip_l/hip_adduction_l/accel	/jointset/hip_l/hip_rotation_l/accel	/jointset/back/lumbar_extension/accel	/jointset/patellofemoral_l/patellar_flexion_l/accel	/jointset/knee_l/knee_flexion_l/accel	/jointset/knee_l/knee_adduction_l/accel	/jointset/knee_l/knee_rotation_l/accel	/jointset/ankle_l/ankle_angle_l/accel	/jointset/subtalar_l/subtalar_angle_l/accel	gamma_cid13_p0	gamma_cid13_p1	gamma_cid13_p2	gamma_cid13_p3	gamma_cid13_p4	gamma_cid13_p5	gamma_cid14_p0
0	0.04879830993385394	0.1077364653924806	0.9029469473282382	0.1266922784136757	-0.3694173893667111	-0.2218319643665825	-0.2144969558742783	0.205154507014195	0.2051545070141877	-0.1732975124521456	-0.1568722177177956	0.09024313228550125	0.07966143293725889	0	0	0	0	0	0	0	0	0	0	0	0	0	0.118368586754849	-0.05360096014330516	-0.009719043788757625	-0.2517693884884672	0.1895569079242951	-0.09239347613182763	-0.05129870830987503	29.77512299114112	36.26766546896948	-7.61033235554174	-19.09973458996767	-438.2913282015131	-44.28425135768542	-26.12518764962849	-3.536507940706908	-1.181730062165315	-0.8926218945536827	12.06683267810056	-0.1607355142804403	3.293213767920733	-3.90711942021835	11.10272419449885	11.10272419449979	2.356986826451704	-1.028737431582825	3.578220030039368	0.8613819397466542	2.629817398983272e-09	4.895239957494477e-07	2.980677042226489e-08	3.047878639236031e-08	6.442810191767351e-08	8.881494622777202e-08	4.590197575595195e-08
0.01	0.04862971622483039	0.1076780970898172	0.9029038439945627	0.1272777822316458	-0.3694232675248625	-0.2216610953777474	-0.2146937586532843	0.205694380931026	0.2056943809309759	-0.1731795941249994	-0.1569111107167098	0.09041749112137568	0.07970539277018727	-0.03357909155777802	-0.01163111405993929	-0.008576250822758058	0.1165229494438215	-0.001051230035081561	0.03397476073205045	-0.03879352657382169	0.1073175844635367	0.1073175844635358	0.02366139721267221	-0.00765492431348232	0.03464192331634329	0.008861618691939962	0.1126383437054023	-0.06233622303550313	-0.008316721512501154	-0.2436198825496616	0.174838744434437	-0.08013780683006327	-0.04679844888243538	25.68885653943941	31.17880380002698	-6.248809563237741	-16.6667019690892	-439.4769361794456	-54.25164702445356	-26.12537534930095	-3.247666125542722	-1.14741401218579	-0.8334514036169859	11.35835040608456	-0.05874100876605919	3.41976313687473	-3.780414891376696	10.44768655774532	10.44768655774454	2.382463904683602	-0.6153256151762118	3.372717384734961	0.9089189120568343	-2.764980655443254e-09	8.593899310146045e-07	-6.486798736655421e-08	8.35413309344526e-08	-1.546866153012005e-07	2.469764321472506e-07	1.060865999956813e-07
0.02	0.04812952032777389	0.1075046952596977	0.9027763132071629	0.1290111804097578	-0.3694359428355031	-0.2211564475993885	-0.2152614858211114	0.2072877128895081	0.2072877128895059	-0.1728227122785699	-0.1570228440956754	0.09093137697086968	0.07984004220566346	-0.06632043760469086	-0.02300670549123062	-0.0168854907448234	0.2295788720300876	-0.001359430495934649	0.06675575790519488	-0.07418487776410393	0.2106916083456399	0.2106916083456349	0.04779270386568551	-0.01456807598477274	0.06790540272480899	0.01813792050944276	0.1069081006559597	-0.07107148592765113	-0.006914399235624677	-0.2354703766109532	0.1601205809445915	-0.06788213752824868	-0.04229818945498645	21.65186604810688	26.09452460232905	-4.903109986011327	-14.28471024435488	-439.7754163140889	-64.03187874375786	-26.12547142924364	-3.368958838533518	-1.13062553643606	-0.8392197144151254	11.37342730658953	-0.01212959943475423	3.054461056139499	-3.226684343510288	10.3140120782122	10.31401207821248	2.450968714519917	-0.8803829031445051	3.302531248463447	0.944318564859091	-8.159778709869781e-09	1.229255866279761e-06	-1.595427451553733e-07	1.366038754765449e-07	-3.738013325200745e-07	4.051379180667292e-07	1.662712242354106e-07
0.03	0.04730525371238319	0.1072183338399023	0.9025664647794012	0.1318604785076631	-0.3694490978998866	-0.2203305669245824	-0.2161699210062359	0.2098974593081155	0.2098974593081506	-0.1722240140010177	-0.1572017559867512	0.09177105248745882	0.08006837834657794	-0.09842547814573085	-0.03426862407926973	-0.02508714852728012	0.3398632516194129	-0.001272698775061178	0.09828913292035123	-0.1073686006756433	0.3107456662697261	0.310745666269716	0.07178256087945387	-0.02111872199076311	0.09977339278279891	0.02745735418827107	0.1038357733145105	-0.06607619816234878	-0.006117010473518672	-0.231635949767409	0.1548696288163197	-0.06997176770855981	-0.0401005095860715	19.83494546249894	27.20230733211582	-4.945079777826418	-12.78266718856603	-439.6076759560005	-61.06752091256801	-26.12486452617058	-3.115155751412724	-1.1244043274703	-0.8111575136659959	10.79332141517355	0.01874960428252891	3.183150398607652	-3.344182476742553	9.774267785318147	9.774267785317294	2.348526820136567	-0.5281230031478505	3.090523512051757	0.9147877687167604	-1.143945466181332e-08	1.326675956904075e-06	-1.599309531389882e-07	1.555982881713475e-07	-5.074071179690451e-07	4.040814968411989e-07	1.850937767233225e-07
0.04	0.04616316087367209	0.1068192673727288	0.9022744960331146	0.1358000960274635	-0.3694614506377775	-0.2191932775647336	-0.2174061866628285	0.2134923793331909	0.2134923793331911	-0.1713903106282054	-0.1574433178485411	0.0929217260301478	0.08038771522414555	-0.129885682267687	-0.04554771496685042	-0.03330955444980037	0.4476427564114974	-0.001198965196820085	0.1290374949116728	-0.139750972057812	0.4077263296262686	0.4077263296262595	0.09479372290645963	-0.02709807014962352	0.1301050079441861	0.03633806783997286	0.1007634459729813	-0.06108091039709295	-0.00531962171197682	-0.2278015229238108	0.149618676688035	-0.07206139788891788	-0.03790282971720054	18.06229893128126	28.31853602323723	-5.006900993837283	-11.31658947105647	-438.6214656410451	-57.91549439550018	-26.12269417038626	-3.239991554716431	-1.134059996344715	-0.8433693424278198	10.87245234714143	-0.01472922796124031	2.897458451372517	-3.066414037635988	9.699333164703534	9.699333164705001	2.2552297171674	-0.7661233337185773	2.995256269142501	0.8565745594336628	-1.467551984875721e-08	1.418478607432702e-06	-1.583751085492999e-07	1.738902651579586e-07	-6.392498326598733e-07	3.997422321693798e-07	2.030635029895475e-07
